<svg width="12" height="50" viewBox="0 0 12 50" fill="none" xmlns="http://www.w3.org/2000/svg">
<path id="!" d="M10.217 0.428467L9.54843 34.9145H2.42587L1.75732 0.428467H10.217ZM6 49.2856C4.57721 49.2856 3.36011 48.8286 2.34873 47.9147C1.33734 46.985 0.84022 45.8662 0.857362 44.5583C0.84022 43.2661 1.33734 42.1631 2.34873 41.2491C3.36011 40.3194 4.57721 39.8545 6 39.8545C7.38852 39.8545 8.58847 40.3194 9.59985 41.2491C10.6112 42.1631 11.1255 43.2661 11.1426 44.5583C11.1255 45.4249 10.8769 46.2207 10.397 46.9456C9.93413 47.6547 9.31701 48.222 8.54561 48.6474C7.77422 49.0729 6.92568 49.2856 6 49.2856Z" fill="white"/>
</svg>
